<?xml version="1.0" standalone="no"?>
<!DOCTYPE svg PUBLIC "-//W3C//DTD SVG 20010904//EN"
 "http://www.w3.org/TR/2001/REC-SVG-20010904/DTD/svg10.dtd">
<svg version="1.0" xmlns="http://www.w3.org/2000/svg"
 width="618.000000pt" height="618.000000pt" viewBox="0 0 618.000000 618.000000"
 preserveAspectRatio="xMidYMid meet">
<metadata>
Created by potrace 1.11, written by Peter Selinger 2001-2013
</metadata>
<g transform="translate(0.000000,618.000000) scale(0.100000,-0.100000)"
fill="#000000" stroke="none">
<path d="M2415 5416 c-109 -40 -159 -70 -230 -141 -57 -57 -75 -83 -97 -141
-35 -92 -48 -172 -43 -273 9 -195 76 -420 211 -715 35 -77 63 -140 61 -141
-233 -152 -386 -304 -530 -525 -64 -100 -268 -493 -325 -630 -321 -763 -266
-1367 161 -1769 117 -109 336 -235 535 -307 94 -34 330 -98 403 -108 20 -3 42
-7 50 -10 8 -3 32 -7 54 -10 22 -2 96 -12 165 -22 230 -31 455 -19 690 37 47
11 94 22 104 24 55 12 211 62 286 92 246 99 413 205 571 362 192 192 305 431
335 710 8 69 7 243 -1 307 -3 27 -8 63 -10 79 -18 153 -86 390 -170 596 -44
106 -191 418 -251 534 -52 99 -150 244 -222 328 -38 45 -150 156 -196 196 -35
29 -38 36 -27 53 7 11 41 77 75 146 162 324 190 509 93 600 -58 54 -197 71
-312 37 -29 -8 -57 -15 -62 -15 -4 0 -6 30 -3 67 21 289 -88 456 -300 456
-139 0 -267 -52 -359 -147 l-44 -45 -43 86 c-70 138 -149 223 -254 275 -58 28
-76 32 -160 34 -76 1 -107 -2 -155 -20z"/>
</g>
</svg>
