<svg version="1" xmlns="http://www.w3.org/2000/svg" width="824" height="824" viewBox="0 0 618.000000 618.000000"><path d="M241.5 76.4c-10.9 4-15.9 7-23 14.1-5.7 5.7-7.5 8.3-9.7 14.1-3.5 9.2-4.8 17.2-4.3 27.3.9 19.5 7.6 42 21.1 71.5 3.5 7.7 6.3 14 6.1 14.1-23.3 15.2-38.6 30.4-53 52.5-6.4 10-26.8 49.3-32.5 63-32.1 76.3-26.6 136.7 16.1 176.9 11.7 10.9 33.6 23.5 53.5 30.7 9.4 3.4 33 9.8 40.3 10.8 2 .3 4.2.7 5 1 .8.3 3.2.7 5.4 1 2.2.2 9.6 1.2 16.5 2.2 23 3.1 45.5 1.9 69-3.7 4.7-1.1 9.4-2.2 10.4-2.4 5.5-1.2 21.1-6.2 28.6-9.2 24.6-9.9 41.3-20.5 57.1-36.2 19.2-19.2 30.5-43.1 33.5-71 .8-6.9.7-24.3-.1-30.7-.3-2.7-.8-6.3-1-7.9-1.8-15.3-8.6-39-17-59.6-4.4-10.6-19.1-41.8-25.1-53.4-5.2-9.9-15-24.4-22.2-32.8-3.8-4.5-15-15.6-19.6-19.6-3.5-2.9-3.8-3.6-2.7-5.3.7-1.1 4.1-7.7 7.5-14.6 16.2-32.4 19-50.9 9.3-60-5.8-5.4-19.7-7.1-31.2-3.7-2.9.8-5.7 1.5-6.2 1.5-.4 0-.6-3-.3-6.7 2.1-28.9-8.8-45.6-30-45.6-13.9 0-26.7 5.2-35.9 14.7l-4.4 4.5-4.3-8.6c-7-13.8-14.9-22.3-25.4-27.5-5.8-2.8-7.6-3.2-16-3.4-7.6-.1-10.7.2-15.5 2z"/></svg>